<svg preserveAspectRatio="none" overflow="visible" style="display: block;" width="19" height="19" viewBox="0 0 19 19" fill="none" xmlns="http://www.w3.org/2000/svg">
<g id="Group">
<path id="Vector" fill-rule="evenodd" clip-rule="evenodd" d="M18.6998 0.0889235C18.7915 0.142117 18.8673 0.216397 18.9198 0.304721C18.9723 0.393045 18.9999 0.492486 19 0.593615V18.4062C19 18.5637 18.9333 18.7147 18.8145 18.8261C18.6957 18.9374 18.5346 19 18.3667 19H14.5667C14.3987 19 14.2376 18.9374 14.1188 18.8261C14.0001 18.7147 13.9333 18.5637 13.9333 18.4062V16.625H12.6667V18.4062C12.6667 18.5637 12.5999 18.7147 12.4812 18.8261C12.3624 18.9374 12.2013 19 12.0333 19H0.633333C0.465363 19 0.304272 18.9374 0.185499 18.8261C0.066726 18.7147 0 18.5637 0 18.4062V11.8749C0.000100886 11.7504 0.0419876 11.629 0.119732 11.528C0.197476 11.427 0.307139 11.3514 0.4332 11.3121L7.6 9.07243V5.34365C7.6 5.23347 7.63271 5.12547 7.69445 5.03173C7.75619 4.93798 7.84453 4.86219 7.9496 4.81283L18.0829 0.0627983C18.1796 0.0174425 18.287 -0.00396795 18.395 0.000605012C18.503 0.00517797 18.6079 0.0355821 18.6998 0.0889235ZM7.6 10.3241L1.26667 12.3025V17.8125H7.6V10.3241ZM8.86667 17.8125H11.4V16.0312C11.4 15.8738 11.4667 15.7227 11.5855 15.6114C11.7043 15.5 11.8654 15.4375 12.0333 15.4375H14.5667C14.7346 15.4375 14.8957 15.5 15.0145 15.6114C15.1333 15.7227 15.2 15.8738 15.2 16.0312V17.8125H17.7333V1.55431L8.86667 5.71059V17.8125Z" fill="black"/>
<path id="Vector_2" d="M2.53333 13.0626H3.8V14.2501H2.53333V13.0626ZM5.06667 13.0626H6.33333V14.2501H5.06667V13.0626ZM2.53333 15.4376H3.8V16.6251H2.53333V15.4376ZM5.06667 15.4376H6.33333V16.6251H5.06667V15.4376ZM10.1333 10.6876H11.4V11.8751H10.1333V10.6876ZM12.6667 10.6876H13.9333V11.8751H12.6667V10.6876ZM10.1333 13.0626H11.4V14.2501H10.1333V13.0626ZM12.6667 13.0626H13.9333V14.2501H12.6667V13.0626ZM15.2 10.6876H16.4667V11.8751H15.2V10.6876ZM15.2 13.0626H16.4667V14.2501H15.2V13.0626ZM10.1333 8.31253H11.4V9.50004H10.1333V8.31253ZM12.6667 8.31253H13.9333V9.50004H12.6667V8.31253ZM15.2 8.31253H16.4667V9.50004H15.2V8.31253ZM10.1333 5.93752H11.4V7.12503H10.1333V5.93752ZM12.6667 5.93752H13.9333V7.12503H12.6667V5.93752ZM15.2 5.93752H16.4667V7.12503H15.2V5.93752ZM15.2 3.5625H16.4667V4.75001H15.2V3.5625Z" fill="black"/>
</g>
</svg>
